<?xml version="1.0" encoding="UTF-8" standalone="no"?>
<!-- Created with Inkscape (http://www.inkscape.org/) -->

<svg
   xmlns:dc="http://purl.org/dc/elements/1.1/"
   xmlns:cc="http://creativecommons.org/ns#"
   xmlns:rdf="http://www.w3.org/1999/02/22-rdf-syntax-ns#"
   xmlns:svg="http://www.w3.org/2000/svg"
   xmlns="http://www.w3.org/2000/svg"
   xmlns:sodipodi="http://sodipodi.sourceforge.net/DTD/sodipodi-0.dtd"
   xmlns:inkscape="http://www.inkscape.org/namespaces/inkscape"
   width="210mm"
   height="297mm"
   viewBox="0 0 210 297"
   version="1.1"
   id="svg8"
   sodipodi:docname="logo.svg"
   inkscape:export-filename="/home/fotonica/Documents/Projects/wifi-sensor/logo/splash.png"
   inkscape:export-xdpi="96"
   inkscape:export-ydpi="96"
   inkscape:version="0.92.2 (5c3e80d, 2017-08-06)">
  <defs
     id="defs2" />
  <sodipodi:namedview
     id="base"
     pagecolor="#ffffff"
     bordercolor="#666666"
     borderopacity="1.0"
     inkscape:pageopacity="0.0"
     inkscape:pageshadow="2"
     inkscape:zoom="0.175"
     inkscape:cx="572.08035"
     inkscape:cy="405.33985"
     inkscape:document-units="mm"
     inkscape:current-layer="layer2"
     showgrid="false"
     showguides="false"
     inkscape:guide-bbox="true"
     inkscape:window-width="1366"
     inkscape:window-height="740"
     inkscape:window-x="1366"
     inkscape:window-y="0"
     inkscape:window-maximized="1" />
  <metadata
     id="metadata5">
    <rdf:RDF>
      <cc:Work
         rdf:about="">
        <dc:format>image/svg+xml</dc:format>
        <dc:type
           rdf:resource="http://purl.org/dc/dcmitype/StillImage" />
      </cc:Work>
    </rdf:RDF>
  </metadata>
  <g
     inkscape:groupmode="layer"
     id="layer2"
     inkscape:label="base">
    <rect
       style="fill:#ffffff;stroke:none;stroke-width:0.26448652"
       id="rect4082"
       width="722.57721"
       height="722.57721"
       x="-237.88147"
       y="-188.92528" />
  </g>
  <g
     inkscape:groupmode="layer"
     id="layer3"
     inkscape:label="wave" />
  <g
     inkscape:label="Layer 1"
     inkscape:groupmode="layer"
     id="layer1">
    <g
       id="g4014"
       transform="matrix(2.6082872,0,0,2.6082872,-148.60006,-206.27053)"
       inkscape:export-xdpi="96"
       inkscape:export-ydpi="96">
      <path
         sodipodi:nodetypes="ccccccccccccccccccccccccccccccccccccccccccccccccccccccccc"
         inkscape:connector-curvature="0"
         style="fill:#000000;stroke:#000000;stroke-width:0.15771388"
         d="m 112.14173,131.70021 c -0.0713,-0.6887 -0.36904,-0.63383 -0.87818,-0.52879 -0.31407,0.0617 -0.62999,0.11379 -0.94734,0.15618 -0.51866,0.0692 -1.04046,0.11248 -1.56344,0.12959 -0.52305,0.0172 -1.04663,0.008 -1.56878,-0.0268 -0.52209,-0.0352 -1.0421,-0.0965 -1.55807,-0.1836 -0.51605,-0.0871 -1.02742,-0.19997 -1.53219,-0.33817 -0.50469,-0.13809 -1.00217,-0.30132 -1.49056,-0.4891 -0.48846,-0.18797 -0.9672,-0.40025 -1.43445,-0.63605 -0.33072,-0.16679 -0.65543,-0.34524 -0.97353,-0.535 -0.449413,-0.2681 -0.885137,-0.5585 -1.305539,-0.87013 -0.42031,-0.31174 -0.824768,-0.64431 -1.211857,-0.99645 -0.387155,-0.35207 -0.756461,-0.72328 -1.106534,-1.11224 -0.350138,-0.38895 -0.680605,-0.79517 -0.990162,-1.21713 -0.309434,-0.42202 -0.59757,-0.85925 -0.863327,-1.31005 -0.265898,-0.45078 -0.509084,-0.91458 -0.728646,-1.38965 -0.219431,-0.47497 -0.414975,-0.96062 -0.5859,-1.45513 -0.170978,-0.49462 -0.317112,-0.99748 -0.437853,-1.5067 -0.120756,-0.50925 -0.215966,-1.02422 -0.285272,-1.54298 -0.06923,-0.51866 -0.112471,-1.04046 -0.129576,-1.56344 -0.01723,-0.52305 -0.0083,-1.04663 0.02678,-1.56879 0.03519,-0.52209 0.09646,-1.0421 0.183588,-1.55807 0.08711,-0.51605 0.199979,-1.02742 0.338179,-1.53219 0.138089,-0.50469 0.301329,-1.00216 0.489107,-1.49055 0.187874,-0.4885 0.400064,-0.9673 0.635775,-1.43461 0.166876,-0.33067 0.345406,-0.65533 0.535252,-0.97338 0.268098,-0.44941 0.558504,-0.88513 0.870129,-1.30553 0.311652,-0.42036 0.644131,-0.82487 0.996191,-1.21202 0.352155,-0.38711 0.72345,-0.75637 1.112493,-1.10639 0.388948,-0.35013 0.795164,-0.68059 1.217125,-0.99014 0.422013,-0.30943 0.859238,-0.59757 1.310037,-0.86332 0.45073,-0.26581 0.91448,-0.50891 1.3895,-0.72839 0.47503,-0.21953 0.96073,-0.41516 1.4553,-0.58617 0.49462,-0.17098 0.99748,-0.31711 1.5067,-0.43785 0.50925,-0.12076 1.02422,-0.21596 1.54298,-0.28527 0.51866,-0.0692 1.04045,-0.11247 1.56343,-0.12957 0.52305,-0.0172 1.04663,-0.008 1.56878,0.0268 0.52209,0.0352 1.0421,0.0965 1.55807,0.1836 0.51596,0.0871 1.02724,0.19988 1.53193,0.33801 0.50479,0.13813 1.00235,0.30142 1.49083,0.48926 0.48836,0.18792 0.96702,0.40015 1.43418,0.63589 0.33081,0.16684 0.65562,0.34533 0.9738,0.53516 0.44941,0.26809 0.88513,0.5585 1.30553,0.87012 0.42032,0.31174 0.82478,0.64431 1.21187,0.99645 0.38716,0.35207 0.75647,0.72327 1.10655,1.11223 0.35013,0.38894 0.6806,0.79516 0.99015,1.21712 0.30944,0.42201 0.59757,0.85924 0.86333,1.31004 0.2658,0.45073 0.5089,0.91448 0.72838,1.3895 0.21953,0.47502 0.41516,0.96072 0.58617,1.45529 0.0641,0.19323 0.12449,0.38767 0.18105,0.58321 0.11438,0.65292 0.43744,0.44603 0.88075,0.36757 0.55506,-0.20295 0.65452,-0.21317 0.49454,-0.76209 -1.22934,-4.08414 -3.94228,-7.57078 -7.61687,-9.76523 -8.12107,-4.845928 -18.632892,-2.190819 -23.478698,5.93032 -4.845925,8.12107 -2.190809,18.6329 5.930335,23.4787 4.149553,1.8181 8.391913,2.70112 12.128843,2.0567 0.72308,-0.0955 0.59792,-0.23774 0.54912,-0.83074 z"
         id="path3937" />
      <path
         sodipodi:nodetypes="ccsccccccccccccccccccccccccccccccccccccccccccccccccccccccc"
         inkscape:connector-curvature="0"
         id="path3699"
         d="m 127.71802,95.663539 c -0.2587,0.240366 -1.05625,0.688605 -0.72754,0.995233 0.0729,0.07506 0.14534,0.150543 0.21733,0.226454 0.53211,0.561094 1.03928,1.145392 1.52003,1.751203 0.54558,0.687692 1.05644,1.402241 1.53065,2.140951 0.47446,0.73871 0.91167,1.50068 1.31,2.28307 0.39811,0.78239 0.75685,1.58421 1.07487,2.40244 0.31811,0.81832 0.5951,1.65204 0.82992,2.49804 0.23492,0.84578 0.4274,1.70278 0.57671,2.5678 0.1491,0.86526 0.25482,1.73744 0.31678,2.61327 0.044,0.61984 0.0661,1.24103 0.0661,1.86242 1e-4,0.8779 -0.0437,1.75526 -0.13125,2.62878 -0.0878,0.8735 -0.21922,1.74206 -0.39378,2.60243 -0.17439,0.8604 -0.3917,1.71154 -0.65112,2.55023 -0.25935,0.83877 -0.56048,1.66403 -0.90227,2.47272 -0.34197,0.80855 -0.72417,1.5995 -1.14515,2.36988 -0.42084,0.77057 -0.87995,1.51961 -1.37563,2.2443 -0.49564,0.72443 -1.02719,1.42363 -1.59267,2.09497 -0.56558,0.6715 -1.1644,1.3143 -1.7942,1.92598 -0.62984,0.61173 -1.28989,1.19157 -1.97766,1.73736 -0.68769,0.54559 -1.40223,1.05644 -2.14095,1.53066 -0.73871,0.47445 -1.50068,0.91166 -2.28307,1.30999 -0.78239,0.39812 -1.58421,0.75685 -2.40243,1.07487 -0.81833,0.31812 -1.65205,0.5951 -2.49804,0.82993 -0.84579,0.23491 -1.70279,0.42739 -2.5678,0.57671 -0.86526,0.14926 -1.73745,0.25516 -2.61328,0.31729 -0.61984,0.0438 -1.24103,0.0657 -1.86242,0.0656 -0.8779,9e-5 -1.75526,-0.0437 -2.62878,-0.13126 -0.87349,-0.0876 -1.74205,-0.21887 -2.60242,-0.39326 -0.86041,-0.17456 -1.71155,-0.39205 -2.55024,-0.65164 -0.838765,-0.25935 -1.664032,-0.56048 -2.472715,-0.90227 -0.808556,-0.34197 -1.599504,-0.72416 -2.369881,-1.14515 -0.770393,-0.42085 -1.519259,-0.87997 -2.243791,-1.37563 -0.724607,-0.49562 -1.423972,-1.02717 -2.095479,-1.59266 -0.671504,-0.56559 -1.314299,-1.1644 -1.925981,-1.79421 -0.61173,-0.62984 -1.191575,-1.28988 -1.73736,-1.97766 -0.545587,-0.68769 -1.056445,-1.40223 -1.530657,-2.14095 -0.474454,-0.7387 -0.911664,-1.50068 -1.309997,-2.28306 -0.398114,-0.7824 -0.756851,-1.58421 -1.07487,-2.40244 -0.318098,-0.81815 -0.595085,-1.6517 -0.829924,-2.49752 -0.234934,-0.84596 -0.42741,-1.70314 -0.57671,-2.56832 -0.149076,-0.8651 -0.254801,-1.7371 -0.316775,-2.61276 -0.04403,-0.62 -0.06609,-1.24137 -0.06615,-1.86294 -9.8e-5,-0.8779 0.04371,-1.75525 0.131257,-2.62878 0.08779,-0.87349 0.219215,-1.74206 0.393774,-2.60242 0.174392,-0.8604 0.391705,-1.71154 0.651124,-2.55023 0.259347,-0.83877 0.560477,-1.66404 0.902268,-2.47272 0.341972,-0.80856 0.724168,-1.59951 1.145151,-2.36988 0.420855,-0.7704 0.87997,-1.51926 1.375627,-2.24379 0.495626,-0.724611 1.027179,-1.423976 1.592668,-2.095483 0.169497,-0.196265 0.341873,-0.389999 0.517064,-0.581142 0.972603,-0.978429 0.9095,-0.796258 -0.09904,-1.804794 -0.576837,-0.614495 -0.667544,-0.884835 -1.203867,-0.320627 -5.002964,5.319216 -7.798028,12.351926 -7.800719,19.669866 -1.24e-4,15.86521 12.861203,28.72654 28.726413,28.72641 15.86521,1.3e-4 28.72654,-12.8612 28.72641,-28.72641 -0.009,-7.31959 -2.81105,-14.35062 -7.81914,-19.665289 -0.37862,-0.363344 -0.72503,-0.240993 -1.29044,0.324408 z"
         style="fill:#000000;stroke:#000000;stroke-width:0.26458332" />
      <path
         sodipodi:nodetypes="ccccccccccccccccccccccccccccccccccccccccccccccccccccccccc"
         inkscape:connector-curvature="0"
         style="fill:#000000;stroke:#000000;stroke-width:0.21284401"
         d="m 89.358845,103.1968 c 0.540305,0.4309 0.822884,0.47289 1.160977,-0.0225 0.308854,-0.44582 0.63475,-0.87967 0.97698,-1.30057 0.445564,-0.54786 0.918246,-1.07309 1.416274,-1.57374 0.497977,-0.500825 1.02069,-0.976434 1.566181,-1.425042 0.545537,-0.44844 1.113158,-0.869319 1.700736,-1.261059 0.587635,-0.39183 1.194499,-0.754025 1.818319,-1.085227 0.62364,-0.331243 1.263453,-0.631093 1.917043,-0.898429 0.653825,-0.267204 1.320615,-0.501539 1.997855,-0.702126 0.47926,-0.142087 0.96339,-0.267165 1.4515,-0.374998 0.6896,-0.152354 1.38639,-0.270126 2.08776,-0.352875 0.70138,-0.08255 1.40645,-0.129972 2.11257,-0.142089 0.70612,-0.01225 1.41241,0.01082 2.11622,0.06912 0.70386,0.05823 1.40438,0.151632 2.09891,0.279847 0.69446,0.12838 1.38207,0.29141 2.06024,0.488478 0.6783,0.196919 1.34632,0.42764 2.00157,0.691299 0.65503,0.263681 1.29646,0.55995 1.9219,0.887697 0.62559,0.327807 1.23439,0.686696 1.82413,1.075323 0.58978,0.388647 1.15975,0.806549 1.70778,1.25214 0.54786,0.445568 1.0731,0.918253 1.57374,1.416281 0.50083,0.49798 0.97644,1.02069 1.42505,1.56618 0.44844,0.54554 0.86932,1.11316 1.26106,1.70074 0.39183,0.58763 0.75402,1.19449 1.08522,1.81831 0.33124,0.62364 0.63109,1.26345 0.89842,1.91704 0.26734,0.65379 0.50181,1.32054 0.70254,1.99775 0.14196,0.47929 0.26691,0.96346 0.37461,1.45159 0.15235,0.6896 0.27012,1.38639 0.35287,2.08775 0.0827,0.70135 0.13024,1.40639 0.14249,2.11249 0.0121,0.70615 -0.0111,1.41247 -0.0695,2.11631 -0.0582,0.70386 -0.15163,1.40436 -0.27985,2.09889 -0.12838,0.69446 -0.29141,1.38207 -0.48848,2.06024 -0.19696,0.67816 -0.42771,1.34606 -0.69139,2.00117 -0.26364,0.65517 -0.55987,1.29674 -0.8876,1.92231 -0.32781,0.62559 -0.6867,1.23439 -1.07533,1.82413 -0.38865,0.58978 -0.80656,1.15975 -1.25215,1.70778 -0.44556,0.54786 -0.91824,1.07309 -1.41627,1.57373 -0.49798,0.50083 -1.02069,0.97644 -1.56618,1.42505 -0.54554,0.44844 -1.11316,0.86932 -1.70074,1.26106 -0.5875,0.39179 -1.19423,0.75395 -1.81791,1.08514 -0.62377,0.33128 -1.26372,0.63116 -1.91745,0.89851 -0.6537,0.26716 -1.32035,0.50147 -1.99745,0.70204 -0.47939,0.14213 -0.96366,0.26724 -1.45191,0.3751 -0.6896,0.15235 -1.38639,0.27012 -2.08775,0.35287 -0.70139,0.0826 -1.40646,0.12997 -2.11259,0.14209 -0.70611,0.0123 -1.4124,-0.0108 -2.11621,-0.0691 -0.70386,-0.0582 -1.40437,-0.15163 -2.09889,-0.27985 -0.69446,-0.12838 -1.38207,-0.2914 -2.06024,-0.48847 -0.67817,-0.19696 -1.34606,-0.42771 -2.00117,-0.69139 -0.655169,-0.26364 -1.296742,-0.55988 -1.922316,-0.88761 -0.205046,-0.11069 -0.408233,-0.22476 -0.60948,-0.34213 -0.797941,-0.47292 -0.818344,-0.3854 -1.335566,0.42498 -0.558589,0.70564 -0.424913,0.7857 0.215026,1.15643 4.991906,2.88751 10.893966,3.80883 16.544536,2.56327 12.46257,-2.75183 20.33461,-15.08563 17.58258,-27.54816 -2.75185,-12.462567 -15.08565,-20.334583 -27.54817,-17.582546 -5.738168,1.274355 -10.767623,4.685437 -14.074006,9.527806 -0.213078,0.44448 -0.08209,0.63596 0.483511,0.99695 z"
         id="path3933" />
      <path
         sodipodi:nodetypes="cccccccccccc"
         inkscape:connector-curvature="0"
         id="circle3758"
         d="m 109.15952,105.40243 c -5.88767,-1.3e-4 -10.660682,4.77265 -10.660846,10.66033 -1.21e-4,5.88787 4.772976,10.66097 10.660846,10.66084 1.27144,-7.9e-4 2.52896,-0.22887 3.71408,-0.67019 0.27245,-0.14708 0.46217,-0.37982 -0.50959,-0.49404 -2.13258,-0.37322 -3.75341,-2.23417 -3.75329,-4.47366 1.5e-4,-2.50825 2.0336,-4.54146 4.54184,-4.54133 2.50804,1.6e-4 4.54117,2.03328 4.54133,4.54133 -5.3e-4,0.26041 -0.0235,0.51956 -0.0682,0.77467 -0.0524,0.26487 -0.037,0.80391 0.52466,-0.0725 1.08461,-1.70216 1.66932,-3.68679 1.67002,-5.72508 -1.6e-4,-5.88768 -4.77318,-10.66046 -10.66085,-10.66033 z"
         style="fill:#000000;fill-opacity:1;stroke:#000000;stroke-width:0.09818998" />
    </g>
    <text
       xml:space="preserve"
       style="font-style:normal;font-variant:normal;font-weight:normal;font-stretch:normal;font-size:79.22332764px;line-height:1.25;font-family:Chandas;-inkscape-font-specification:Chandas;letter-spacing:0px;word-spacing:0px;fill:#000000;fill-opacity:1;stroke:none;stroke-width:1.98058319"
       x="-10.279891"
       y="270.14493"
       id="text3998"><tspan
         sodipodi:role="line"
         id="tspan3996"
         x="-10.279891"
         y="270.14493"
         style="font-style:normal;font-variant:normal;font-weight:normal;font-stretch:normal;font-family:Chandas;-inkscape-font-specification:Chandas;stroke-width:1.98058319">Central</tspan></text>
  </g>
</svg>
